<mxfile host="app.diagrams.net" agent="Mozilla/5.0 (Macintosh; Intel Mac OS X 10_15_7) AppleWebKit/605.1.15 (KHTML, like Gecko) Version/17.6 Safari/605.1.15" version="27.1.5">
  <diagram name="Page-1" id="AqySNO9kpjVi1z6rc3C7">
    <mxGraphModel dx="946" dy="652" grid="1" gridSize="10" guides="1" tooltips="1" connect="1" arrows="1" fold="1" page="1" pageScale="1" pageWidth="827" pageHeight="1169" math="0" shadow="0">
      <root>
        <mxCell id="0" />
        <mxCell id="1" parent="0" />
        <mxCell id="GSGQV9rLtPmWymMuG4am-3" value="" style="edgeStyle=orthogonalEdgeStyle;rounded=0;orthogonalLoop=1;jettySize=auto;html=1;" parent="1" source="GSGQV9rLtPmWymMuG4am-1" edge="1">
          <mxGeometry relative="1" as="geometry">
            <mxPoint x="390" y="140" as="targetPoint" />
          </mxGeometry>
        </mxCell>
        <mxCell id="GSGQV9rLtPmWymMuG4am-1" value="&lt;font style=&quot;font-size: 16px;&quot;&gt;DATASET Construction&amp;nbsp;&lt;/font&gt;" style="rounded=0;whiteSpace=wrap;html=1;fillColor=#dae8fc;strokeColor=#6c8ebf;" parent="1" vertex="1">
          <mxGeometry x="320" y="40" width="140" height="60" as="geometry" />
        </mxCell>
        <mxCell id="GSGQV9rLtPmWymMuG4am-6" value="" style="edgeStyle=orthogonalEdgeStyle;rounded=0;orthogonalLoop=1;jettySize=auto;html=1;" parent="1" source="GSGQV9rLtPmWymMuG4am-4" target="GSGQV9rLtPmWymMuG4am-5" edge="1">
          <mxGeometry relative="1" as="geometry">
            <Array as="points">
              <mxPoint x="540" y="170" />
              <mxPoint x="540" y="170" />
            </Array>
          </mxGeometry>
        </mxCell>
        <mxCell id="GSGQV9rLtPmWymMuG4am-4" value="&lt;font style=&quot;font-size: 16px;&quot;&gt;Preprocessing&lt;/font&gt;" style="rounded=0;whiteSpace=wrap;html=1;fillColor=#ffe6cc;strokeColor=#d79b00;" parent="1" vertex="1">
          <mxGeometry x="320" y="140" width="140" height="60" as="geometry" />
        </mxCell>
        <mxCell id="GSGQV9rLtPmWymMuG4am-5" value="&lt;font style=&quot;font-size: 13px;&quot;&gt;1. Video Info Data&lt;/font&gt;&lt;div&gt;&lt;font style=&quot;font-size: 13px;&quot;&gt;2. &amp;nbsp;Live Chat Data&lt;/font&gt;&lt;/div&gt;" style="shape=document;whiteSpace=wrap;html=1;boundedLbl=1;size=0.125;align=center;fillColor=#ffe6cc;strokeColor=#d79b00;" parent="1" vertex="1">
          <mxGeometry x="540" y="140" width="160" height="80" as="geometry" />
        </mxCell>
        <mxCell id="GSGQV9rLtPmWymMuG4am-39" value="" style="edgeStyle=orthogonalEdgeStyle;rounded=0;orthogonalLoop=1;jettySize=auto;html=1;" parent="1" source="GSGQV9rLtPmWymMuG4am-13" target="GSGQV9rLtPmWymMuG4am-38" edge="1">
          <mxGeometry relative="1" as="geometry" />
        </mxCell>
        <mxCell id="GSGQV9rLtPmWymMuG4am-13" value="&lt;font style=&quot;font-size: 15px;&quot;&gt;EDA Techniques&lt;/font&gt;" style="rounded=0;whiteSpace=wrap;html=1;fillColor=#d5e8d4;strokeColor=#82b366;" parent="1" vertex="1">
          <mxGeometry x="140" y="280" width="120" height="40" as="geometry" />
        </mxCell>
        <mxCell id="GSGQV9rLtPmWymMuG4am-14" value="" style="rounded=0;whiteSpace=wrap;html=1;fillColor=#f5f5f5;fontColor=#333333;strokeColor=#666666;" parent="1" vertex="1">
          <mxGeometry x="345" y="260" width="355" height="200" as="geometry" />
        </mxCell>
        <mxCell id="GSGQV9rLtPmWymMuG4am-33" value="" style="edgeStyle=orthogonalEdgeStyle;rounded=0;orthogonalLoop=1;jettySize=auto;html=1;" parent="1" source="GSGQV9rLtPmWymMuG4am-15" target="GSGQV9rLtPmWymMuG4am-32" edge="1">
          <mxGeometry relative="1" as="geometry" />
        </mxCell>
        <mxCell id="GSGQV9rLtPmWymMuG4am-15" value="&lt;font style=&quot;font-size: 15px;&quot;&gt;RoBERTa&lt;/font&gt;" style="rounded=0;whiteSpace=wrap;html=1;fillColor=#f8cecc;strokeColor=#b85450;" parent="1" vertex="1">
          <mxGeometry x="354" y="280" width="106" height="60" as="geometry" />
        </mxCell>
        <mxCell id="GSGQV9rLtPmWymMuG4am-20" value="" style="endArrow=classic;html=1;rounded=0;exitX=0.5;exitY=1;exitDx=0;exitDy=0;" parent="1" source="GSGQV9rLtPmWymMuG4am-4" edge="1">
          <mxGeometry width="50" height="50" relative="1" as="geometry">
            <mxPoint x="390" y="260" as="sourcePoint" />
            <mxPoint x="390" y="240" as="targetPoint" />
          </mxGeometry>
        </mxCell>
        <mxCell id="GSGQV9rLtPmWymMuG4am-21" value="" style="endArrow=none;html=1;rounded=0;" parent="1" edge="1">
          <mxGeometry width="50" height="50" relative="1" as="geometry">
            <mxPoint x="200" y="240" as="sourcePoint" />
            <mxPoint x="480" y="240" as="targetPoint" />
          </mxGeometry>
        </mxCell>
        <mxCell id="GSGQV9rLtPmWymMuG4am-22" value="" style="endArrow=classic;html=1;rounded=0;" parent="1" edge="1">
          <mxGeometry width="50" height="50" relative="1" as="geometry">
            <mxPoint x="480" y="240" as="sourcePoint" />
            <mxPoint x="480" y="260" as="targetPoint" />
          </mxGeometry>
        </mxCell>
        <mxCell id="GSGQV9rLtPmWymMuG4am-24" value="" style="endArrow=classic;html=1;rounded=0;entryX=0.5;entryY=0;entryDx=0;entryDy=0;" parent="1" target="GSGQV9rLtPmWymMuG4am-13" edge="1">
          <mxGeometry width="50" height="50" relative="1" as="geometry">
            <mxPoint x="199.8" y="240" as="sourcePoint" />
            <mxPoint x="199.8" y="260" as="targetPoint" />
          </mxGeometry>
        </mxCell>
        <mxCell id="GSGQV9rLtPmWymMuG4am-27" value="Video Info Data,&lt;div&gt;Live Chat Data&lt;/div&gt;" style="text;html=1;align=center;verticalAlign=middle;resizable=0;points=[];autosize=1;strokeColor=#666666;fillColor=#f5f5f5;fontColor=#333333;" parent="1" vertex="1">
          <mxGeometry x="164" y="200" width="110" height="40" as="geometry" />
        </mxCell>
        <mxCell id="GSGQV9rLtPmWymMuG4am-28" value="Live Chat Data" style="text;html=1;align=center;verticalAlign=middle;resizable=0;points=[];autosize=1;strokeColor=#666666;fillColor=#f5f5f5;fontColor=#333333;" parent="1" vertex="1">
          <mxGeometry x="419" y="210" width="100" height="30" as="geometry" />
        </mxCell>
        <mxCell id="GSGQV9rLtPmWymMuG4am-42" value="" style="edgeStyle=orthogonalEdgeStyle;rounded=0;orthogonalLoop=1;jettySize=auto;html=1;" parent="1" source="GSGQV9rLtPmWymMuG4am-32" target="GSGQV9rLtPmWymMuG4am-41" edge="1">
          <mxGeometry relative="1" as="geometry">
            <Array as="points">
              <mxPoint x="407" y="460" />
              <mxPoint x="407" y="460" />
            </Array>
          </mxGeometry>
        </mxCell>
        <mxCell id="GSGQV9rLtPmWymMuG4am-32" value="&lt;font style=&quot;font-size: 13px;&quot;&gt;Sentiment Scores&lt;/font&gt;" style="rounded=0;whiteSpace=wrap;html=1;fillColor=#f8cecc;strokeColor=#b85450;" parent="1" vertex="1">
          <mxGeometry x="354" y="360" width="106" height="50" as="geometry" />
        </mxCell>
        <mxCell id="GSGQV9rLtPmWymMuG4am-44" value="" style="edgeStyle=orthogonalEdgeStyle;rounded=0;orthogonalLoop=1;jettySize=auto;html=1;" parent="1" source="GSGQV9rLtPmWymMuG4am-34" target="GSGQV9rLtPmWymMuG4am-41" edge="1">
          <mxGeometry relative="1" as="geometry">
            <Array as="points">
              <mxPoint x="543" y="450" />
              <mxPoint x="543" y="450" />
            </Array>
          </mxGeometry>
        </mxCell>
        <mxCell id="GSGQV9rLtPmWymMuG4am-34" value="&lt;font style=&quot;font-size: 15px;&quot;&gt;Topic Insights&lt;/font&gt;" style="rounded=0;whiteSpace=wrap;html=1;fillColor=#f8cecc;strokeColor=#b85450;" parent="1" vertex="1">
          <mxGeometry x="490" y="360" width="90" height="50" as="geometry" />
        </mxCell>
        <mxCell id="GSGQV9rLtPmWymMuG4am-38" value="&lt;font style=&quot;font-size: 15px;&quot;&gt;Trends and Patterns&lt;/font&gt;" style="rounded=0;whiteSpace=wrap;html=1;fillColor=#d5e8d4;strokeColor=#82b366;" parent="1" vertex="1">
          <mxGeometry x="140" y="360" width="120" height="40" as="geometry" />
        </mxCell>
        <mxCell id="GSGQV9rLtPmWymMuG4am-41" value="&lt;font style=&quot;font-size: 15px;&quot;&gt;VISUALIZATION&lt;/font&gt;" style="whiteSpace=wrap;html=1;rounded=0;fillColor=#ffe6cc;strokeColor=#d79b00;" parent="1" vertex="1">
          <mxGeometry x="140" y="490" width="540" height="40" as="geometry" />
        </mxCell>
        <mxCell id="GSGQV9rLtPmWymMuG4am-43" value="" style="endArrow=classic;html=1;rounded=0;exitX=0.5;exitY=1;exitDx=0;exitDy=0;" parent="1" source="GSGQV9rLtPmWymMuG4am-38" edge="1">
          <mxGeometry width="50" height="50" relative="1" as="geometry">
            <mxPoint x="650" y="500" as="sourcePoint" />
            <mxPoint x="200" y="487" as="targetPoint" />
          </mxGeometry>
        </mxCell>
        <mxCell id="GSGQV9rLtPmWymMuG4am-45" value="&lt;font style=&quot;font-size: 15px;&quot;&gt;P-TEST&lt;/font&gt;" style="rounded=0;whiteSpace=wrap;html=1;fillColor=#f8cecc;strokeColor=#b85450;" parent="1" vertex="1">
          <mxGeometry x="414" y="420" width="120" height="30" as="geometry" />
        </mxCell>
        <mxCell id="ahzkM-9VKJli0wK-0xlS-1" value="&lt;font style=&quot;font-size: 15px;&quot;&gt;LLM&lt;/font&gt;" style="rounded=0;whiteSpace=wrap;html=1;fillColor=#f8cecc;strokeColor=#b85450;" vertex="1" parent="1">
          <mxGeometry x="529" y="280" width="130" height="50" as="geometry" />
        </mxCell>
        <mxCell id="ahzkM-9VKJli0wK-0xlS-3" value="" style="endArrow=classic;html=1;rounded=0;exitX=0.5;exitY=1;exitDx=0;exitDy=0;entryX=0.689;entryY=0.04;entryDx=0;entryDy=0;entryPerimeter=0;" edge="1" parent="1" source="ahzkM-9VKJli0wK-0xlS-1" target="GSGQV9rLtPmWymMuG4am-34">
          <mxGeometry width="50" height="50" relative="1" as="geometry">
            <mxPoint x="390" y="360" as="sourcePoint" />
            <mxPoint x="440" y="310" as="targetPoint" />
          </mxGeometry>
        </mxCell>
        <mxCell id="ahzkM-9VKJli0wK-0xlS-4" value="&lt;font style=&quot;font-size: 15px;&quot;&gt;Graph RAG&lt;/font&gt;" style="rounded=0;whiteSpace=wrap;html=1;fillColor=#f8cecc;strokeColor=#b85450;" vertex="1" parent="1">
          <mxGeometry x="594" y="360" width="90" height="50" as="geometry" />
        </mxCell>
        <mxCell id="ahzkM-9VKJli0wK-0xlS-5" value="" style="endArrow=classic;html=1;rounded=0;entryX=0.5;entryY=0;entryDx=0;entryDy=0;exitX=0.5;exitY=1;exitDx=0;exitDy=0;" edge="1" parent="1" source="ahzkM-9VKJli0wK-0xlS-1" target="ahzkM-9VKJli0wK-0xlS-4">
          <mxGeometry width="50" height="50" relative="1" as="geometry">
            <mxPoint x="390" y="360" as="sourcePoint" />
            <mxPoint x="440" y="310" as="targetPoint" />
          </mxGeometry>
        </mxCell>
        <mxCell id="ahzkM-9VKJli0wK-0xlS-7" value="" style="endArrow=classic;html=1;rounded=0;exitX=0.5;exitY=1;exitDx=0;exitDy=0;" edge="1" parent="1" source="ahzkM-9VKJli0wK-0xlS-4">
          <mxGeometry width="50" height="50" relative="1" as="geometry">
            <mxPoint x="594" y="590" as="sourcePoint" />
            <mxPoint x="639" y="490" as="targetPoint" />
          </mxGeometry>
        </mxCell>
      </root>
    </mxGraphModel>
  </diagram>
</mxfile>
